<svg width="18" height="19" viewBox="0 0 18 19" fill="none" xmlns="http://www.w3.org/2000/svg">
<g id="Upload / 24 / Outline">
<path id="Vector" d="M6.53166 7.91655L8.24916 9.64155V2.44905C8.24916 2.25014 8.32818 2.05938 8.46883 1.91872C8.60948 1.77807 8.80025 1.69905 8.99916 1.69905C9.19807 1.69905 9.38884 1.77807 9.52949 1.91872C9.67014 2.05938 9.74916 2.25014 9.74916 2.44905V9.64155L11.4667 7.91655C11.5364 7.84626 11.6193 7.79046 11.7107 7.75238C11.8021 7.71431 11.9002 7.6947 11.9992 7.6947C12.0982 7.6947 12.1962 7.71431 12.2876 7.75238C12.379 7.79046 12.4619 7.84626 12.5317 7.91655C12.602 7.98627 12.6578 8.06923 12.6958 8.16062C12.7339 8.25201 12.7535 8.35004 12.7535 8.44905C12.7535 8.54806 12.7339 8.64609 12.6958 8.73749C12.6578 8.82888 12.602 8.91183 12.5317 8.98155L9.53166 11.9816C9.46033 12.0498 9.37623 12.1034 9.28416 12.1391C9.10157 12.2141 8.89676 12.2141 8.71416 12.1391C8.6221 12.1034 8.53799 12.0498 8.46666 11.9816L5.46666 8.98155C5.39673 8.91162 5.34126 8.82861 5.30342 8.73724C5.26557 8.64587 5.24609 8.54795 5.24609 8.44905C5.24609 8.35016 5.26557 8.25223 5.30342 8.16087C5.34126 8.0695 5.39673 7.98648 5.46666 7.91655C5.53659 7.84662 5.61961 7.79115 5.71098 7.75331C5.80234 7.71546 5.90027 7.69598 5.99916 7.69598C6.09806 7.69598 6.19598 7.71546 6.28735 7.75331C6.37872 7.79115 6.46173 7.84662 6.53166 7.91655Z" fill="#A5B5BD"/>
<path id="Vector_2" d="M15.75 9.19531C15.5511 9.19531 15.3603 9.27433 15.2197 9.41498C15.079 9.55564 15 9.7464 15 9.94531V14.4453C15 14.6442 14.921 14.835 14.7803 14.9756C14.6397 15.1163 14.4489 15.1953 14.25 15.1953H3.75C3.55109 15.1953 3.36032 15.1163 3.21967 14.9756C3.07902 14.835 3 14.6442 3 14.4453V9.94531C3 9.7464 2.92098 9.55564 2.78033 9.41498C2.63968 9.27433 2.44891 9.19531 2.25 9.19531C2.05109 9.19531 1.86032 9.27433 1.71967 9.41498C1.57902 9.55564 1.5 9.7464 1.5 9.94531V14.4453C1.5 15.042 1.73705 15.6143 2.15901 16.0363C2.58097 16.4583 3.15326 16.6953 3.75 16.6953H14.25C14.8467 16.6953 15.419 16.4583 15.841 16.0363C16.2629 15.6143 16.5 15.042 16.5 14.4453V9.94531C16.5 9.7464 16.421 9.55564 16.2803 9.41498C16.1397 9.27433 15.9489 9.19531 15.75 9.19531Z" fill="#A5B5BD"/>
</g>
</svg>
