<svg width="18" height="18" viewBox="0 0 18 18" fill="none" xmlns="http://www.w3.org/2000/svg">
<g id="log out">
<path id="Vector" d="M12.2212 6.5325L13.9462 8.25L6.75374 8.25C6.55483 8.25 6.36406 8.32902 6.22341 8.46967C6.08276 8.61032 6.00374 8.80109 6.00374 9C6.00374 9.19891 6.08276 9.38968 6.22341 9.53033C6.36406 9.67098 6.55483 9.75 6.75374 9.75L13.9462 9.75L12.2212 11.4675C12.1509 11.5372 12.0951 11.6202 12.0571 11.7116C12.019 11.803 11.9994 11.901 11.9994 12C11.9994 12.099 12.019 12.197 12.0571 12.2884C12.0951 12.3798 12.1509 12.4628 12.2212 12.5325C12.291 12.6028 12.3739 12.6586 12.4653 12.6967C12.5567 12.7347 12.6547 12.7543 12.7537 12.7543C12.8527 12.7543 12.9508 12.7347 13.0422 12.6967C13.1336 12.6586 13.2165 12.6028 13.2862 12.5325L16.2862 9.5325C16.3545 9.46117 16.408 9.37706 16.4437 9.285C16.5188 9.1024 16.5188 8.8976 16.4437 8.715C16.408 8.62294 16.3545 8.53883 16.2862 8.4675L13.2862 5.4675C13.2163 5.39757 13.1333 5.3421 13.0419 5.30426C12.9506 5.26641 12.8526 5.24693 12.7537 5.24693C12.6548 5.24693 12.5569 5.26641 12.4656 5.30426C12.3742 5.3421 12.2912 5.39757 12.2212 5.4675C12.1513 5.53743 12.0958 5.62045 12.058 5.71181C12.0201 5.80318 12.0007 5.90111 12.0007 6C12.0007 6.09889 12.0201 6.19682 12.058 6.28819C12.0958 6.37955 12.1513 6.46257 12.2212 6.5325ZM7.50374 15.75C7.50374 15.5511 7.42472 15.3603 7.28407 15.2197C7.14342 15.079 6.95265 15 6.75374 15L3.75374 15C3.55483 15 3.36406 14.921 3.22341 14.7803C3.08276 14.6397 3.00374 14.4489 3.00374 14.25L3.00374 3.75C3.00374 3.55109 3.08276 3.36032 3.22341 3.21967C3.36406 3.07902 3.55483 3 3.75374 3L6.75374 3C6.95265 3 7.14342 2.92098 7.28407 2.78033C7.42472 2.63968 7.50374 2.44891 7.50374 2.25C7.50374 2.05109 7.42472 1.86032 7.28407 1.71967C7.14342 1.57902 6.95265 1.5 6.75374 1.5L3.75374 1.5C3.157 1.5 2.58471 1.73705 2.16275 2.15901C1.74079 2.58097 1.50374 3.15326 1.50374 3.75L1.50374 14.25C1.50374 14.8467 1.74079 15.419 2.16275 15.841C2.5847 16.2629 3.157 16.5 3.75374 16.5L6.75374 16.5C6.95265 16.5 7.14342 16.421 7.28407 16.2803C7.42472 16.1397 7.50374 15.9489 7.50374 15.75Z" fill="#A5B5BD"/>
</g>
</svg>
