<svg width="32" height="21" viewBox="0 0 32 21" fill="none" xmlns="http://www.w3.org/2000/svg">
<g id="Group 3357909">
<path id="path58" d="M17.6992 10.0977C17.6994 10.6493 17.914 11.1679 18.3041 11.5578L20.4354 13.6891C21.2405 14.4942 22.5505 14.4942 23.3557 13.6891L25.4869 11.5579C25.8769 11.1678 26.0917 10.6493 26.0917 10.0977C26.0917 9.54621 25.8771 9.02766 25.487 8.63745L23.3558 6.5063C22.5506 5.70123 21.2405 5.70123 20.4354 6.50635L18.3041 8.63745C17.9141 9.02761 17.6992 9.54616 17.6992 10.0977Z" fill="#0081BD"/>
<path id="path62" d="M31.3954 14.5391L29.2641 12.4076C28.8741 12.0177 28.3555 11.803 27.8037 11.803C27.2524 11.803 26.7338 12.0177 26.3437 12.4077L24.2124 14.539C24.1611 14.5902 23.37 15.5729 21.9018 15.5729C20.6262 15.5729 19.8623 14.8316 19.6502 14.6035C19.6304 14.582 17.4602 12.4076 17.4602 12.4076C17.4089 12.3564 16.4262 11.5651 16.4262 10.097C16.4262 8.6289 17.409 7.83772 17.4602 7.78651L19.5915 5.6553C19.9815 5.26524 20.1963 4.74664 20.1963 4.19506C20.1963 3.64354 19.9815 3.12484 19.5915 2.73498L17.4602 0.603521C17.0702 0.213512 16.5516 -0.00113869 16 -0.00113869C15.4485 -0.00113869 14.93 0.213512 14.54 0.603472L12.4086 2.73483C12.0186 3.12484 11.8039 3.64339 11.8039 4.19512C11.8039 4.74649 12.0187 5.26509 12.4087 5.6552L14.54 7.78651C14.5911 7.83772 15.5739 8.6289 15.5739 10.097C15.5739 11.5651 14.5911 12.3564 14.5399 12.4075C14.5399 12.4075 12.3701 14.5814 12.3507 14.6026C12.1396 14.8296 11.3754 15.5729 10.0981 15.5729C8.62999 15.5729 7.83876 14.5901 7.78765 14.539L5.65639 12.4075C5.26628 12.0177 4.74773 11.8028 4.1962 11.8028C3.64463 11.8029 3.12603 12.0176 2.73602 12.4075L0.604708 14.5388C0.214649 14.9289 8.90873e-09 15.4474 8.90873e-09 15.9989C-5.04973e-05 16.5505 0.214651 17.0691 0.604761 17.4592L2.73607 19.5905C3.12598 19.9804 3.64452 20.1953 4.19625 20.1953C4.74768 20.1952 5.26628 19.9804 5.65644 19.5905L7.7876 17.4592C7.83876 17.4079 8.62999 16.4252 10.0981 16.4252C11.454 16.4252 12.2311 17.262 12.3825 17.4305C12.3915 17.4398 14.5398 19.5905 14.5398 19.5905C14.9299 19.9805 15.4483 20.1951 15.9998 20.1952C16.5515 20.1953 17.0701 19.9805 17.4602 19.5904C17.4602 19.5904 19.592 17.4585 19.5923 17.4582C19.6484 17.4007 20.4388 16.4252 21.9018 16.4253C23.3699 16.4253 24.1611 17.408 24.2124 17.4593L26.3436 19.5906C26.7336 19.9806 27.2522 20.1953 27.8038 20.1953C28.3553 20.1953 28.874 19.9806 29.2639 19.5906L31.3954 17.4592C31.7853 17.0692 32 16.5507 32 15.9991C32 15.4475 31.7853 14.9291 31.3954 14.5391Z" fill="#0081BD"/>
<path id="path66" d="M8.64217 13.6891C9.44739 14.4942 10.7574 14.4942 11.5625 13.6891L13.6938 11.5579C14.0839 11.1679 14.2986 10.6494 14.2987 10.0977C14.2987 9.54621 14.0838 9.02767 13.6938 8.63751L11.5626 6.50635C10.7575 5.70128 9.44734 5.70118 8.64222 6.5063L6.51101 8.63745C6.12095 9.02761 5.90625 9.54616 5.90625 10.0977C5.90625 10.6493 6.121 11.1678 6.51096 11.5579L8.64217 13.6891Z" fill="#0081BD"/>
</g>
</svg>
