<svg width="18" height="19" viewBox="0 0 18 19" fill="none" xmlns="http://www.w3.org/2000/svg">
<g id="map / 24 / Outline">
<path id="Vector" d="M15.99 3.98304L11.49 2.48304H11.4375C11.4026 2.47953 11.3674 2.47953 11.3325 2.48304H11.16H11.0625H11.01L6.75 3.94554L2.49 2.48304C2.37721 2.44585 2.25721 2.43597 2.13985 2.45423C2.0225 2.47248 1.91116 2.51834 1.815 2.58804C1.71807 2.65705 1.63895 2.74813 1.58418 2.85377C1.52941 2.9594 1.50055 3.07655 1.5 3.19554V13.6955C1.4996 13.8528 1.54862 14.0062 1.64013 14.134C1.73165 14.2619 1.86104 14.3577 2.01 14.408L6.51 15.908C6.66109 15.9573 6.82392 15.9573 6.975 15.908L11.25 14.483L15.51 15.9455C15.5896 15.9563 15.6704 15.9563 15.75 15.9455C15.9068 15.9477 16.0599 15.8976 16.185 15.803C16.2819 15.734 16.3611 15.6429 16.4158 15.5373C16.4706 15.4317 16.4995 15.3145 16.5 15.1955V4.69554C16.5004 4.5383 16.4514 4.38492 16.3599 4.25706C16.2684 4.12921 16.139 4.03335 15.99 3.98304ZM6 14.153L3 13.1555V4.23804L6 5.23554V14.153ZM10.5 13.1555L7.5 14.153V5.23554L10.5 4.23804V13.1555ZM15 14.153L12 13.1555V4.23804L15 5.23554V14.153Z" fill="#85BBF3"/>
</g>
</svg>
